#!OML:ASF F:\VICON\USERDATA\INSTALL\rory3\rory3.ASF
:FULLY-SPECIFIED
:DEGREES
356
root -0.174705 17.6317 35.2826 -0.264664 -6.7895 -9.17591
lowerback 9.97518 2.51208 8.14917
upperback -0.252142 4.43782 2.47596
thorax -5.45356 1.98756 -2.59249
lowerneck -15.7742 -2.91293 -1.70257
upperneck 20.0768 -3.9819 1.63978
head 8.96414 -1.81903 0.35106
rclavicle -3.39844e-014 -2.80038e-014
rhumerus -18.7052 -8.71998 -82.0136
rradius 32.273
rwrist 0.158805
rhand -19.6542 23.7939
rfingers 7.12502
rthumb 6.67367 -6.08092
lclavicle -3.39844e-014 -2.80038e-014
lhumerus -36.9308 14.8816 76.9717
lradius 17.2846
lwrist -2.02178
lhand -26.6488 29.07
lfingers 7.12502
lthumb -0.0809056 59.0498
rfemur 7.55266 6.21083 36.4094
rtibia 25.0825
rfoot -21.233 -4.92527
rtoes -0.945987
lfemur -26.1807 -6.84897 -5.97768
ltibia 13.8132
lfoot -4.39808 7.9863
ltoes -4.71057
357
root -0.157535 17.6111 35.4752 -0.314441 -6.92029 -8.80272
lowerback 9.5207 2.62262 7.95583
upperback 0.118387 4.47781 2.31255
thorax -4.80035 2.04696 -2.62236
lowerneck -16.1409 -3.00989 -1.67238
upperneck 19.8228 -4.12592 1.69953
head 8.94711 -1.87627 0.344517
rclavicle -4.68526e-014 -5.11871e-015
rhumerus -17.9018 -8.99334 -82.1053
rradius 32.4869
rwrist 0.0797111
rhand -19.6805 22.9029
rfingers 7.12502
rthumb 6.64827 -6.97272
lclavicle -4.68526e-014 -5.11871e-015
lhumerus -36.4942 15.7682 76.5738
lradius 16.7876
lwrist -3.08601
lhand -26.27 29.0182
lfingers 7.12502
lthumb 0.284986 58.9978
rfemur 8.01653 6.15285 35.8288
rtibia 25.5017
rfoot -21.2937 -4.45018
rtoes -1.23458
lfemur -25.691 -7.32024 -6.3167
ltibia 12.3726
lfoot -5.2928 8.87937
ltoes -5.07535
358
root -0.143664 17.5918 35.6631 -0.336315 -7.04447 -8.59351
lowerback 9.53217 2.65571 7.80897
upperback 0.179246 4.49742 2.21285
thorax -4.74288 2.06285 -2.64646
lowerneck -16.3078 -2.99192 -1.49311
upperneck 19.7665 -4.10189 1.51485
head 8.94936 -1.87069 0.253215
rclavicle -8.04146e-015 1.07344e-014
rhumerus -17.514 -9.24314 -82.2022
rradius 32.4725
rwrist 0.136499
rhand -19.8168 22.9353
rfingers 7.12502
rthumb 6.51668 -6.94444
lclavicle -8.04146e-015 1.07344e-014
lhumerus -36.5629 16.1996 76.2155
lradius 16.3095
lwrist -3.66864
lhand -26.6493 27.7443
lfingers 7.12502
lthumb -0.0813761 57.7241
rfemur 8.33906 6.39043 35.5428
rtibia 26.0535
rfoot -21.1437 -4.22487
rtoes -1.85334
lfemur -25.4124 -7.1856 -6.7198
ltibia 11.6788
lfoot -6.02609 9.15526
ltoes -6.22617
359
root -0.131037 17.5699 35.8423 -0.246487 -7.10875 -8.73774
lowerback 9.64996 2.64373 7.92114
upperback 0.0581304 4.5178 2.2751
thorax -4.93232 2.06004 -2.65703
lowerneck -15.864 -2.97098 -1.49364
upperneck 19.4774 -4.05757 1.45239
head 8.76744 -1.86253 0.246262
rclavicle 1.0781e-014 -2.76808e-014
rhumerus -17.4589 -9.2187 -82.1522
rradius 32.3889
rwrist -0.00589249
rhand -19.952 23.5291
rfingers 7.12502
rthumb 6.38611 -6.35463
lclavicle 1.0781e-014 -2.76808e-014
lhumerus -36.8494 16.5046 75.9072
lradius 15.7027
lwrist -4.15513
lhand -26.6767 27.8233
lfingers 7.12502
lthumb -0.10786 57.8031
rfemur 8.52412 6.64302 35.6818
rtibia 26.7388
rfoot -20.8043 -4.07231
rtoes -2.18048
lfemur -25.3825 -6.04969 -7.1122
ltibia 11.5455
lfoot -6.0019 8.14679
ltoes -5.36746
360
root -0.116428 17.5514 36.0351 -0.265959 -7.04806 -8.70065
lowerback 9.56034 2.62182 7.899
upperback 0.0374496 4.47827 2.26931
thorax -4.90887 2.04173 -2.64138
lowerneck -15.3681 -3.00821 -1.59997
upperneck 19.1155 -4.12031 1.63183
head 8.56207 -1.88748 0.326374
rclavicle -1.77012e-014 -2.15681e-014
rhumerus -17.5022 -9.41249 -82.157
rradius 32.5588
rwrist 0.00509146
rhand -19.9943 23.4634
rfingers 7.12502
rthumb 6.34535 -6.42154
lclavicle -1.77012e-014 -2.15681e-014
lhumerus -37.1391 16.8865 75.488
lradius 15.223
lwrist -4.9505
lhand -25.6963 28.537
lfingers 7.12502
lthumb 0.839062 58.5151
rfemur 8.84904 6.76356 35.6283
rtibia 27.4724
rfoot -20.4796 -3.74971
rtoes -2.00944
lfemur -25.4271 -4.71859 -7.93628
ltibia 12.1972
lfoot -5.415 6.50808
ltoes -4.33818
361
root -0.0986185 17.5421 36.239 -0.478436 -6.83979 -8.18249
lowerback 9.58313 2.52732 7.41065
upperback 0.067749 4.29348 2.1486
thorax -4.93245 1.96142 -2.47666
lowerneck -15.4124 -2.99397 -1.61799
upperneck 19.1627 -4.10006 1.64602
head 8.58647 -1.87713 0.335554
rclavicle 5.40912e-015 -3.86388e-014
rhumerus -17.4889 -9.48939 -82.1959
rradius 32.7081
rwrist 0.209299
rhand -20.1124 23.2799
rfingers 7.12502
rthumb 6.23131 -6.60844
lclavicle 5.40912e-015 -3.86388e-014
lhumerus -37.4668 17.4641 74.995
lradius 14.8512
lwrist -5.84933
lhand -25.3389 27.7328
lfingers 7.12502
lthumb 1.18421 57.7093
rfemur 9.32253 6.56597 34.956
rtibia 28.1894
rfoot -20.1992 -3.20501
rtoes -2.4899
lfemur -25.5764 -3.9502 -9.23443
ltibia 13.7184
lfoot -4.95665 5.47816
ltoes -2.7347
362
root -0.0818878 17.5316 36.4401 -0.705449 -6.5666 -7.95408
lowerback 9.69042 2.39445 7.17464
upperback 0.132387 4.09815 2.16631
thorax -4.95975 1.87147 -2.30831
lowerneck -15.6678 -2.9675 -1.60979
upperneck 19.3915 -4.02959 1.47518
head 8.70518 -1.85788 0.279946
rclavicle 2.23967e-014 3.60297e-015
rhumerus -17.2398 -9.58981 -82.1456
rradius 32.5038
rwrist 0.32692
rhand -20.1157 22.9951
rfingers 7.12502
rthumb 6.22813 -6.89331
lclavicle 2.23967e-014 3.60297e-015
lhumerus -37.6667 17.6278 74.8952
lradius 14.5582
lwrist -5.9809
lhand -25.9001 26.47
lfingers 7.12502
lthumb 0.642216 56.4488
rfemur 9.82215 6.23581 34.5781
rtibia 28.8984
rfoot -19.6738 -2.70328
rtoes -3.22916
lfemur -25.834 -3.43587 -10.1144
ltibia 15.5578
lfoot -4.17656 4.7962
ltoes -3.27225
363
root -0.0641747 17.5159 36.6441 -0.82309 -6.47849 -8.2768
lowerback 9.76588 2.34111 7.54521
upperback 0.0926141 4.08359 2.26227
thorax -5.02823 1.85252 -2.41625
lowerneck -15.552 -2.97173 -1.63826
upperneck 19.4798 -4.05392 1.57267
head 8.71757 -1.86137 0.315695
rclavicle -2.51486e-014 -1.58407e-014
rhumerus -17.3062 -9.89981 -82.0438
rradius 32.314
rwrist 0.581931
rhand -19.8838 23.193
rfingers 7.12502
rthumb 6.45201 -6.68869
lclavicle -2.51486e-014 -1.58407e-014
lhumerus -38.0268 18.0715 74.4624
lradius 14.2901
lwrist -6.65518
lhand -25.7243 26.5994
lfingers 7.12502
lthumb 0.812003 56.5776
rfemur 10.2474 6.12644 34.8417
rtibia 29.618
rfoot -18.9034 -2.39107
rtoes -3.67773
lfemur -26.0954 -2.88963 -10.2906
ltibia 17.3667
lfoot -3.15351 4.3027
ltoes -3.92941
364
root -0.0465823 17.519 36.8611 -0.936306 -6.43239 -8.08342
lowerback 9.68507 2.34611 7.40493
upperback 0.0104053 4.06818 2.18179
thorax -5.07442 1.84427 -2.4189
lowerneck -15.1996 -2.97058 -1.64787
upperneck 19.4327 -4.09845 1.77253
head 8.64321 -1.86515 0.384709
rclavicle 2.65455e-014 2.30093e-014
rhumerus -17.7628 -10.1743 -81.9967
rradius 32.456
rwrist 0.749185
rhand -19.9568 23.9123
rfingers 7.12502
rthumb 6.38154 -5.97153
lclavicle 2.65455e-014 2.30093e-014
lhumerus -38.5123 18.3193 73.9633
lradius 14.1078
lwrist -7.21495
lhand -25.2249 26.6729
lfingers 7.12502
lthumb 1.29434 56.6487
rfemur 10.5995 5.95151 34.4812
rtibia 30.4082
rfoot -18.2193 -2.07404
rtoes -4.81158
lfemur -26.3419 -2.40795 -10.9431
ltibia 19.1335
lfoot -2.01547 3.36691
ltoes -0.695902
365
root -0.0294978 17.5335 37.0786 -1.02158 -6.30298 -7.51633
lowerback 9.40543 2.37005 6.84402
upperback 0.099897 3.99918 2.03716
thorax -4.85456 1.83321 -2.23351
lowerneck -15.5927 -3.02676 -1.45736
upperneck 19.6966 -4.17821 1.56103
head 8.79675 -1.90561 0.264815
rclavicle -6.1631e-015 2.88238e-014
rhumerus -17.8239 -10.4873 -81.9633
rradius 32.5459
rwrist 0.710036
rhand -19.8419 24.5517
rfingers 7.12502
rthumb 6.49243 -5.32879
lclavicle -6.1631e-015 2.88238e-014
lhumerus -38.6247 19.1863 73.3305
lradius 13.7212
lwrist -8.25812
lhand -25.2761 25.7278
lfingers 7.12502
lthumb 1.24492 55.7039
rfemur 10.8276 5.8529 33.7466
rtibia 31.2849
rfoot -17.427 -1.83639
rtoes -6.18407
lfemur -26.7233 -2.52237 -11.7481
ltibia 20.8424
lfoot -0.681017 2.32822
ltoes 3.4447
366
root -0.0137146 17.5454 37.2931 -1.14128 -6.18995 -7.12335
lowerback 9.1395 2.41221 6.41461
upperback 0.249152 3.97583 2.00191
thorax -4.57526 1.84424 -2.01113
lowerneck -15.9208 -3.10861 -1.42584
upperneck 19.7919 -4.25071 1.35266
head 8.88447 -1.95627 0.174402
rclavicle -1.08621e-014 -1.47225e-014
rhumerus -17.7174 -10.9055 -81.7953
rradius 32.4198
rwrist 0.628873
rhand -19.7084 24.6013
rfingers 7.12502
rthumb 6.62136 -5.27514
lclavicle -1.08621e-014 -1.47225e-014
lhumerus -38.4696 19.7169 73.1211
lradius 13.3116
lwrist -9.00126
lhand -25.3585 25.8192
lfingers 7.12502
lthumb 1.16529 55.7958
rfemur 10.8582 5.64597 33.1252
rtibia 32.3754
rfoot -16.2816 -1.12883
rtoes -6.24948
lfemur -26.9404 -2.81963 -12.2753
ltibia 22.3264
lfoot 0.00201757 1.69204
ltoes 3.51026
367
root -0.00363205 17.5538 37.5111 -1.504 -6.09774 -6.86333
lowerback 9.37443 2.43166 6.07121
upperback 0.239615 3.98565 1.99654
thorax -4.73868 1.85113 -1.84099
lowerneck -15.7087 -3.19111 -1.6022
upperneck 19.7791 -4.35227 1.48306
head 8.85041 -2.00492 0.238477
rclavicle 5.71603e-015 1.44492e-014
rhumerus -18.2345 -11.4638 -81.6247
rradius 32.5385
rwrist 0.814829
rhand -19.5504 24.6628
rfingers 7.12502
rthumb 6.77385 -5.20889
lclavicle 5.71603e-015 1.44492e-014
lhumerus -38.7557 20.0997 72.7875
lradius 13.2025
lwrist -9.86049
lhand -24.9514 26.7336
lfingers 7.12502
lthumb 1.55853 56.7076
rfemur 10.9781 5.4202 32.7273
rtibia 33.6783
rfoot -14.7875 -0.535256
rtoes -6.54011
lfemur -26.7181 -2.78801 -12.755
ltibia 23.561
lfoot -0.000668283 1.20421
ltoes 2.8343
368
root 0.00589069 17.561 37.7208 -1.82942 -5.90774 -6.78599
lowerback 9.86397 2.37811 5.86726
upperback 0.0579457 3.94428 2.03862
thorax -5.22475 1.81735 -1.71057
lowerneck -15.2853 -3.24733 -1.9406
upperneck 19.7971 -4.43921 1.86648
head 8.79883 -2.03363 0.419736
rclavicle 1.27409e-014 2.78299e-015
rhumerus -18.9653 -11.7908 -81.4633
rradius 32.5878
rwrist 0.904054
rhand -19.41 24.6643
rfingers 7.12502
rthumb 6.90937 -5.20293
lclavicle 1.27409e-014 2.78299e-015
lhumerus -39.1604 20.0822 72.5765
lradius 13.1324
lwrist -9.94967
lhand -24.7117 27.2584
lfingers 7.12502
lthumb 1.78999 57.2306
rfemur 10.8797 5.21961 32.6154
rtibia 35.237
rfoot -13.0756 -0.172668
rtoes -6.79141
lfemur -26.4468 -2.7075 -13.0263
ltibia 24.6081
lfoot 0.0348991 0.305959
ltoes 4.92869
369
root 0.0249369 17.5685 37.9443 -2.10976 -5.54244 -6.22228
lowerback 9.72356 2.31865 5.35145
upperback 0.0784211 3.78796 1.89304
thorax -5.15676 1.75471 -1.54806
lowerneck -15.1688 -3.32204 -2.07091
upperneck 20.0059 -4.57315 2.10699
head 8.86131 -2.08006 0.506707
rclavicle 1.3748e-014 -1.38528e-014
rhumerus -19.3188 -12.0515 -81.4145
rradius 32.4625
rwrist 0.902749
rhand -19.8867 24.3186
rfingers 7.12502
rthumb 6.44924 -5.56323
lclavicle 1.3748e-014 -1.38528e-014
lhumerus -39.2015 20.1645 72.3846
lradius 12.9002
lwrist -9.98337
lhand -24.6894 27.6188
lfingers 7.12502
lthumb 1.8115 57.5908
rfemur 10.6216 4.72325 31.792
rtibia 37.0757
rfoot -11.3453 0.418802
rtoes -5.96065
lfemur -26.0781 -2.71982 -13.9079
ltibia 25.5009
lfoot 0.21064 -1.33212
ltoes 4.93538
